<svg width="40" height="40" viewBox="0 0 40 40" fill="none" xmlns="http://www.w3.org/2000/svg">
<path d="M20 20.8333C20.4602 20.8333 20.8333 20.4602 20.8333 19.9999C20.8333 19.5397 20.4602 19.1666 20 19.1666C19.5398 19.1666 19.1667 19.5397 19.1667 19.9999C19.1667 20.4602 19.5398 20.8333 20 20.8333Z" stroke="#667085" stroke-width="1.66667" stroke-linecap="round" stroke-linejoin="round"/>
<path d="M20 14.9999C20.4602 14.9999 20.8333 14.6268 20.8333 14.1666C20.8333 13.7063 20.4602 13.3333 20 13.3333C19.5398 13.3333 19.1667 13.7063 19.1667 14.1666C19.1667 14.6268 19.5398 14.9999 20 14.9999Z" stroke="#667085" stroke-width="1.66667" stroke-linecap="round" stroke-linejoin="round"/>
<path d="M20 26.6666C20.4602 26.6666 20.8333 26.2935 20.8333 25.8333C20.8333 25.373 20.4602 24.9999 20 24.9999C19.5398 24.9999 19.1667 25.373 19.1667 25.8333C19.1667 26.2935 19.5398 26.6666 20 26.6666Z" stroke="#667085" stroke-width="1.66667" stroke-linecap="round" stroke-linejoin="round"/>
</svg>
