<svg width="59" height="53" viewBox="0 0 59 53" fill="none" xmlns="http://www.w3.org/2000/svg">
<path d="M38.979 25.5972H36.2707L32.2082 33.7222L26.7915 17.4722L22.729 25.5972H20.0207M29.4813 8.36091C24.0664 2.03042 15.0366 0.327531 8.25214 6.12437C1.46762 11.9212 0.512458 21.6132 5.84037 28.4692C9.86466 33.6476 21.2971 44.0436 26.6507 48.8209C27.6348 49.6991 28.1269 50.1382 28.7031 50.3111C29.2034 50.4611 29.7592 50.4611 30.2595 50.3111C30.8357 50.1382 31.3277 49.6991 32.3119 48.8209C37.6655 44.0436 49.0979 33.6476 53.1222 28.4692C58.4501 21.6132 57.6116 11.8602 50.7104 6.12437C43.8093 0.388508 34.8962 2.03042 29.4813 8.36091Z" stroke="#027A48" stroke-width="4" stroke-linecap="round" stroke-linejoin="round"/>
</svg>
