<svg width="44" height="44" viewBox="0 0 44 44" fill="none" xmlns="http://www.w3.org/2000/svg">
<rect x="0.5" y="0.5" width="43" height="43" rx="7.5" fill="white"/>
<rect x="0.5" y="0.5" width="43" height="43" rx="7.5" stroke="#D0D5DD"/>
<path d="M25.4998 17.5L28.9998 14M30.9998 12L28.9998 14L30.9998 12ZM21.3898 21.61C21.9061 22.1195 22.3166 22.726 22.5975 23.3948C22.8785 24.0635 23.0244 24.7813 23.0268 25.5066C23.0292 26.232 22.8882 26.9507 22.6117 27.6213C22.3352 28.2919 21.9288 28.9012 21.4159 29.4141C20.903 29.9271 20.2937 30.3334 19.6231 30.6099C18.9525 30.8864 18.2338 31.0275 17.5084 31.025C16.7831 31.0226 16.0653 30.8767 15.3966 30.5958C14.7278 30.3148 14.1213 29.9043 13.6118 29.388C12.6099 28.3507 12.0555 26.9614 12.0681 25.5193C12.0806 24.0772 12.659 22.6977 13.6788 21.678C14.6985 20.6583 16.078 20.0798 17.5201 20.0673C18.9622 20.0548 20.3515 20.6091 21.3888 21.611L21.3898 21.61ZM21.3898 21.61L25.4998 17.5L21.3898 21.61ZM25.4998 17.5L28.4998 20.5L31.9998 17L28.9998 14L25.4998 17.5Z" stroke="#344054" stroke-width="2" stroke-linecap="round" stroke-linejoin="round"/>
</svg>
