<svg width="65" height="65" viewBox="0 0 65 65" fill="none" xmlns="http://www.w3.org/2000/svg">
<path d="M37.9168 39.9749V9.47909C37.9168 7.68335 37.2035 5.96116 35.9337 4.69138C34.6639 3.42161 32.9417 2.70825 31.146 2.70825C29.3503 2.70825 27.6281 3.42161 26.3583 4.69138C25.0885 5.96116 24.3752 7.68335 24.3752 9.47909V39.9749C22.2011 41.4275 20.5519 43.5408 19.671 46.0026C18.7901 48.4644 18.7243 51.1442 19.4833 53.6463C20.2422 56.1484 21.7858 58.3401 23.8859 59.8976C25.986 61.4552 28.5313 62.2961 31.146 62.2961C33.7607 62.2961 36.306 61.4552 38.4061 59.8976C40.5062 58.3401 42.0498 56.1484 42.8087 53.6463C43.5677 51.1442 43.5019 48.4644 42.621 46.0026C41.7401 43.5408 40.0909 41.4275 37.9168 39.9749Z" stroke="#027A48" stroke-width="4" stroke-linecap="round" stroke-linejoin="round"/>
</svg>
