<svg width="571" height="523" viewBox="0 0 571 523" fill="none" xmlns="http://www.w3.org/2000/svg">
<g opacity="0.4" clip-path="url(#clip0_130_1630)">
<path d="M864 67.2585C791.427 19.9599 703.006 -18.7877 621.899 9.71452C563.61 30.1986 517.243 85.1506 497.852 148.314C482.333 198.865 480.969 252.468 461.475 296.779C436.85 352.35 384.965 387.996 324.536 402.437C258.54 418.208 190.096 401.605 128.981 426.239C83.8079 444.447 47.1809 484.099 19.9535 529.031C-14.9521 586.636 -23.4817 648.787 -58.978 700.457C-90.168 745.545 -129.26 776.444 -170.904 779.752C-213.198 783.112 -260.833 750.544 -283.242 702.359C-301.851 662.344 -314.998 616.989 -321.834 569.993C-328.471 524.379 -340.955 478.28 -367.831 447.68C-396.024 415.584 -437.353 400.531 -478.884 387.327C-518.022 374.883 -557.081 365.15 -591.859 346.487C-635.468 323.085 -672.336 285.144 -695.811 237.958" stroke="#12B76A" stroke-miterlimit="10"/>
<path d="M863.813 71.0833C788.746 23.8772 699.213 -16.7665 616.092 11.5962C557.126 31.7172 509.702 86.7953 491.214 151.048C476.585 201.893 477.631 256.141 459.969 302.71C437.701 361.106 386.355 402.303 326.242 416.919C259.516 433.441 189.324 412.88 126.126 436.396C79.0705 453.907 41.0583 494.396 12.5453 539.99C-21.1791 593.92 -34.894 652.757 -68.962 702.796C-98.2037 745.517 -135.354 778.235 -177.278 782.772C-219.325 787.322 -265.178 757.378 -289.085 713.702C-310.299 674.947 -323.72 629.837 -330.836 583.406C-337.491 539.982 -347.004 495.443 -371.398 463.944C-397.834 429.805 -438.772 412.823 -479.809 399.933C-519.291 387.703 -559.284 379.461 -595.455 361.734C-641.127 339.352 -680.219 301.354 -705.543 253.65" stroke="#12B76A" stroke-miterlimit="10"/>
<path d="M863.628 74.9072C786.065 27.7952 695.462 -14.6034 610.289 13.4752C550.671 33.3306 502.147 88.4373 484.578 153.779C470.828 204.921 474.296 259.812 458.466 308.639C438.555 369.861 387.71 416.425 327.951 431.4C260.455 448.472 188.562 424.14 123.275 446.552C74.3382 463.352 35.0112 504.759 5.14054 550.948C-27.3857 601.244 -46.3012 656.724 -78.9425 705.133C-106.237 745.486 -141.45 780.011 -183.647 785.792C-225.453 791.519 -269.553 764.461 -294.925 725.044C-318.902 687.798 -332.422 642.681 -339.834 596.82C-346.498 555.582 -352.961 512.621 -374.96 480.207C-399.529 444.006 -440.155 424.996 -480.729 412.539C-520.526 400.41 -561.474 393.782 -599.045 376.98C-646.774 355.635 -688.097 317.563 -715.271 269.34" stroke="#12B76A" stroke-miterlimit="10"/>
<path d="M863.44 78.7317C783.381 31.7121 691.635 -12.6902 604.482 15.3548C544.16 34.7664 494.574 90.0798 477.94 156.513C465.061 207.95 470.959 263.484 456.959 314.569C439.406 378.619 389.062 430.548 329.657 445.884C261.389 463.505 187.804 435.391 120.421 456.711C69.6099 472.787 29.0479 515.208 -2.26636 561.908C-33.5806 608.608 -57.7122 660.693 -88.9268 707.473C-114.273 745.46 -147.559 781.773 -190.02 788.813C-231.595 795.707 -273.901 771.829 -300.768 736.388C-327.635 700.946 -341.109 655.52 -348.833 610.232C-355.494 571.177 -358.832 529.83 -378.524 496.469C-401.109 458.207 -441.539 437.168 -481.652 425.142C-521.764 413.117 -563.661 408.113 -602.638 392.224C-652.418 371.932 -695.979 333.771 -725 285.03" stroke="#12B76A" stroke-miterlimit="10"/>
</g>
<defs>
<clipPath id="clip0_130_1630">
<rect width="864" height="790" fill="white" transform="matrix(-1 0 0 1 864 0)"/>
</clipPath>
</defs>
</svg>
