<svg width="888" height="297" viewBox="0 0 888 297" fill="none" xmlns="http://www.w3.org/2000/svg">
<g opacity="0.54">
<path d="M-886 -245.599C-805.024 -281.043 -706.363 -310.079 -615.864 -288.72C-550.826 -273.37 -499.09 -232.191 -477.453 -184.858C-460.137 -146.977 -458.616 -106.809 -436.864 -73.6034C-409.387 -31.9607 -351.494 -5.24848 -284.068 5.57318C-210.43 17.3912 -134.06 4.94963 -65.8688 23.4098C-15.4645 37.0544 25.4037 66.7683 55.7839 100.439C94.7315 143.606 104.249 190.18 143.855 228.899C178.657 262.687 222.276 285.842 268.742 288.321C315.933 290.839 369.085 266.433 394.088 230.325C414.852 200.339 429.522 166.351 437.149 131.134C444.554 96.9521 458.485 62.4074 488.473 39.4767C519.93 15.425 566.044 4.1448 612.385 -5.74975C656.055 -15.0749 699.637 -22.3683 738.442 -36.3541C787.1 -53.891 828.237 -82.3226 854.431 -117.682" stroke="#12B76A" stroke-miterlimit="10"/>
<path d="M-885.791 -242.732C-802.031 -278.107 -702.132 -308.564 -609.385 -287.31C-543.591 -272.232 -490.675 -230.958 -470.047 -182.81C-453.724 -144.708 -454.891 -104.056 -435.183 -69.1589C-410.337 -25.3986 -353.045 5.47294 -285.972 16.4256C-211.519 28.8067 -133.199 13.3986 -62.6833 31.0212C-10.1786 44.1429 32.2352 74.4841 64.0499 108.651C101.679 149.064 116.983 193.155 154.995 230.652C187.623 262.666 229.075 287.184 275.854 290.584C322.77 293.993 373.932 271.554 400.608 238.824C424.279 209.783 439.253 175.979 447.194 141.185C454.619 108.645 465.234 75.2689 492.453 51.6644C521.95 26.0821 567.628 13.3559 613.417 3.69688C657.471 -5.46834 702.095 -11.6444 742.455 -24.9286C793.415 -41.7009 837.034 -70.1753 865.29 -105.923" stroke="#12B76A" stroke-miterlimit="10"/>
<path d="M-885.584 -239.867C-799.039 -275.171 -697.945 -306.943 -602.91 -285.902C-536.388 -271.023 -482.245 -229.728 -462.642 -180.763C-447.299 -142.439 -451.17 -101.305 -433.506 -64.7163C-411.289 -18.8386 -354.556 16.055 -287.878 27.2772C-212.566 40.0703 -132.348 21.8368 -59.5011 38.6317C-4.89777 51.2207 38.9831 82.2496 72.3127 116.862C108.605 154.552 129.711 196.127 166.132 232.404C196.588 262.643 235.878 288.515 282.961 292.847C329.608 297.138 378.814 276.862 407.125 247.324C433.878 219.413 448.964 185.604 457.233 151.237C464.669 120.335 471.881 88.1411 496.427 63.8512C523.841 36.7234 569.172 22.478 614.445 13.1428C658.849 4.05441 704.539 -0.912374 746.46 -13.5038C799.716 -29.4989 845.824 -58.0287 876.145 -94.1656" stroke="#12B76A" stroke-miterlimit="10"/>
<path d="M-885.375 -237.001C-796.046 -272.236 -693.676 -305.51 -596.431 -284.494C-529.123 -269.947 -473.796 -228.497 -455.235 -178.714C-440.865 -140.169 -447.447 -98.5541 -431.825 -60.2721C-412.24 -12.2756 -356.067 26.6387 -289.782 38.1305C-213.609 51.3354 -131.503 30.2678 -56.3176 46.244C0.377403 58.2913 45.6363 90.0798 80.5766 125.075C115.517 160.071 142.443 199.101 177.272 234.157C205.554 262.623 242.694 289.835 290.072 295.111C336.46 300.276 383.665 282.383 413.643 255.825C443.621 229.266 458.655 195.225 467.274 161.288C474.707 132.021 478.431 101.038 500.403 76.0373C525.604 47.3651 570.716 31.5993 615.473 22.5878C660.23 13.5763 706.978 9.82629 750.469 -2.07992C806.013 -17.2864 854.619 -45.8829 887 -82.4078" stroke="#12B76A" stroke-miterlimit="10"/>
</g>
</svg>
