<svg width="489" height="280" viewBox="0 0 489 280" fill="none" xmlns="http://www.w3.org/2000/svg">
<g opacity="0.4" clip-path="url(#clip0_166_4374)">
<path d="M0.000146942 -10.7503C46.702 -41.1651 103.603 -66.0813 155.797 -47.7533C193.306 -34.5813 223.144 0.754981 235.623 41.3715C245.61 73.8779 246.487 108.346 259.032 136.84C274.879 172.574 308.268 195.496 347.155 204.782C389.625 214.923 433.67 204.247 472.998 220.088C502.068 231.796 525.638 257.294 543.16 286.187C565.622 323.229 571.111 363.195 593.954 396.42C614.025 425.413 639.182 445.283 665.98 447.41C693.197 449.571 723.851 428.628 738.272 397.644C750.247 371.913 758.707 342.747 763.106 312.527C767.377 283.195 775.411 253.552 792.706 233.875C810.849 213.236 837.445 203.557 864.171 195.066C889.357 187.064 914.492 180.805 936.872 168.804C964.935 153.756 988.661 129.358 1003.77 99.0158" stroke="#12B76A" stroke-miterlimit="10"/>
<path d="M0.120258 -8.29068C48.4273 -38.646 106.043 -64.7815 159.533 -46.5432C197.479 -33.6046 227.997 1.81269 239.894 43.1296C249.309 75.8252 248.635 110.708 260.001 140.654C274.331 178.205 307.374 204.696 346.057 214.095C388.997 224.719 434.166 211.497 474.835 226.62C505.117 237.879 529.578 263.915 547.927 293.234C569.629 327.913 578.455 365.748 600.378 397.924C619.196 425.396 643.102 446.435 670.081 449.352C697.139 452.278 726.647 433.023 742.032 404.937C755.683 380.017 764.319 351.009 768.899 321.152C773.182 293.229 779.304 264.589 795.001 244.334C812.013 222.381 838.358 211.461 864.766 203.172C890.173 195.308 915.909 190.008 939.186 178.609C968.577 164.216 993.734 139.782 1010.03 109.107" stroke="#12B76A" stroke-miterlimit="10"/>
<path d="M0.239732 -5.83192C50.153 -36.1267 108.458 -63.3907 163.268 -45.335C201.633 -32.5673 232.86 2.86843 244.165 44.8858C253.014 77.7716 250.782 113.069 260.969 144.466C273.782 183.834 306.502 213.777 344.957 223.407C388.393 234.384 434.657 218.738 476.671 233.15C508.162 243.953 533.47 270.579 552.692 300.28C573.623 332.622 585.796 368.298 606.801 399.427C624.366 425.376 647.026 447.577 674.181 451.294C701.084 454.977 729.462 437.577 745.79 412.231C761.22 388.28 769.92 359.268 774.689 329.778C778.978 303.26 783.137 275.634 797.294 254.791C813.104 231.513 839.248 219.288 865.359 211.278C890.968 203.479 917.319 199.217 941.497 188.412C972.211 174.687 998.803 150.205 1016.29 119.196" stroke="#12B76A" stroke-miterlimit="10"/>
<path d="M0.360123 -3.37255C51.8797 -33.6079 110.92 -62.1603 167.004 -44.1263C205.823 -31.6439 237.732 3.92474 248.437 46.6436C256.725 79.7197 252.929 115.43 261.938 148.28C273.234 189.466 305.631 222.859 343.859 232.72C387.791 244.051 435.145 225.973 478.507 239.682C511.205 250.02 537.307 277.298 557.458 307.328C577.61 337.358 593.139 370.85 613.226 400.932C629.537 425.359 650.957 448.71 678.281 453.237C705.035 457.67 732.26 442.315 749.549 419.525C766.839 396.735 775.51 367.524 780.48 338.402C784.767 313.288 786.915 286.701 799.587 265.248C814.121 240.644 840.139 227.116 865.952 219.383C891.765 211.65 918.726 208.432 943.808 198.215C975.843 185.166 1003.88 160.627 1022.55 129.285" stroke="#12B76A" stroke-miterlimit="10"/>
</g>
<defs>
<clipPath id="clip0_166_4374">
<rect width="556" height="508" fill="white" transform="translate(0 -54)"/>
</clipPath>
</defs>
</svg>
