<svg width="535" height="280" viewBox="0 0 535 280" fill="none" xmlns="http://www.w3.org/2000/svg">
<g opacity="0.4" clip-path="url(#clip0_166_4369)">
<path d="M535 -10.7503C488.298 -41.1651 431.398 -66.0813 379.204 -47.7533C341.694 -34.5813 311.856 0.754981 299.377 41.3715C289.391 73.8779 288.513 108.346 275.968 136.84C260.121 172.574 226.732 195.496 187.845 204.782C145.376 214.923 101.33 204.247 62.0022 220.088C32.9323 231.796 9.36214 257.294 -8.15919 286.187C-30.6216 323.229 -36.1106 363.195 -58.9531 396.42C-79.0244 425.413 -104.181 445.283 -130.979 447.41C-158.196 449.571 -188.851 428.628 -203.271 397.644C-215.246 371.913 -223.707 342.747 -228.106 312.527C-232.377 283.195 -240.411 253.552 -257.706 233.875C-275.848 213.236 -302.444 203.557 -329.17 195.066C-354.357 187.064 -379.491 180.805 -401.872 168.804C-429.935 153.756 -453.66 129.358 -468.767 99.0158" stroke="#12B76A" stroke-miterlimit="10"/>
<path d="M534.88 -8.29068C486.573 -38.646 428.957 -64.7815 375.467 -46.5432C337.521 -33.6046 307.003 1.81269 295.106 43.1296C285.692 75.8252 286.365 110.708 274.999 140.654C260.669 178.205 227.627 204.696 188.943 214.095C146.004 224.719 100.834 211.497 60.1653 226.62C29.884 237.879 5.42244 263.915 -12.9262 293.234C-34.6284 327.913 -43.4543 365.748 -65.3777 397.924C-84.1952 425.396 -108.102 446.435 -135.081 449.352C-162.139 452.278 -191.646 433.023 -207.031 404.937C-220.683 380.017 -229.319 351.009 -233.899 321.152C-238.181 293.229 -244.303 264.589 -260.001 244.334C-277.013 222.381 -303.357 211.461 -329.765 203.172C-355.173 195.308 -380.909 190.008 -404.186 178.609C-433.577 164.216 -458.733 139.782 -475.029 109.107" stroke="#12B76A" stroke-miterlimit="10"/>
<path d="M534.76 -5.83192C484.847 -36.1267 426.542 -63.3907 371.732 -45.335C333.367 -32.5673 302.14 2.86843 290.835 44.8858C281.986 77.7716 284.218 113.069 274.031 144.466C261.218 183.834 228.498 213.777 190.043 223.407C146.607 234.384 100.343 218.738 58.3294 233.15C26.8378 243.953 1.53016 270.579 -17.6922 300.28C-38.6234 332.622 -50.7959 368.298 -71.8012 399.427C-89.366 425.376 -112.026 447.577 -139.181 451.294C-166.084 454.977 -194.462 437.577 -210.79 412.231C-226.22 388.28 -234.92 359.268 -239.689 329.778C-243.978 303.26 -248.137 275.634 -262.294 254.791C-278.104 231.513 -304.248 219.288 -330.359 211.278C-355.968 203.479 -382.319 199.217 -406.497 188.412C-437.211 174.687 -463.803 150.205 -481.29 119.196" stroke="#12B76A" stroke-miterlimit="10"/>
<path d="M534.64 -3.37255C483.12 -33.6079 424.08 -62.1603 367.996 -44.1263C329.177 -31.6439 297.268 3.92474 286.563 46.6436C278.275 79.7197 282.071 115.43 273.062 148.28C261.766 189.466 229.369 222.859 191.141 232.72C147.209 244.051 99.8554 225.973 56.4934 239.682C23.7954 250.02 -2.30699 277.298 -22.4583 307.328C-42.6096 337.358 -58.1388 370.85 -78.2259 400.932C-94.5369 425.359 -115.957 448.71 -143.281 453.237C-170.035 457.67 -197.26 442.315 -214.549 419.525C-231.839 396.735 -240.51 367.524 -245.48 338.402C-249.767 313.288 -251.915 286.701 -264.587 265.248C-279.121 240.644 -305.139 227.116 -330.952 219.383C-356.765 211.65 -383.726 208.432 -408.808 198.215C-440.843 185.166 -468.875 160.627 -487.551 129.285" stroke="#12B76A" stroke-miterlimit="10"/>
</g>
<defs>
<clipPath id="clip0_166_4369">
<rect width="556" height="508" fill="white" transform="matrix(-1 0 0 1 535 -54)"/>
</clipPath>
</defs>
</svg>
